<svg version="1" xmlns="http://www.w3.org/2000/svg" width="933.333" height="933.333" viewBox="0 0 700.000000 700.000000"><path d="M43.9 132.3c-.1 1.6-.1 391 0 391.9.1.5 64 .8 142.1.8h142v3.5c.1 1.9.1 8.9.1 15.5s0 14.9-.1 18.4v6.4h-54.1c-29.7 0-54.3.3-54.6.5-.4.5-.7 29.3-.4 40.7l.1 2.5h262.1v-21.4c0-11.7-.2-21.6-.5-21.8-.2-.3-24.8-.5-54.5-.5h-54l-.3-15.2c-.2-8.3-.2-18.1 0-21.9l.3-6.7H514c78.1 0 142-.3 142.1-.8.1-.9.1-389.2 0-391.4-.1-1.5-20.8-1.6-306.1-1.6-233.1 0-306 .2-306.1 1.1zm568.2 43.4c.1.5.2 69.3.3 153.1l.1 152.2H608c-6.2.1-508.2.1-515 0h-5.5l.1-152.8c.1-84 .2-152.8.3-153 .3-.6 524.1-.1 524.2.5z"/><path d="M328.4 219.1c-.2.4-.3 34.9-.3 76.8V372l21.9-.1h21.9V218.5h-21.5c-11.9 0-21.8.3-22 .6zM330.8 393.8l-2.7.3v21.5c0 19.5.1 21.4 1.7 21.5 4.7.4 39.9.5 40.9.1.9-.3 1.2-6.2 1.3-21.8V394l-4.2-.1c-23.4-.3-34.7-.3-37-.1z"/></svg>